<svg xmlns="http://www.w3.org/2000/svg">

  <symbol id="lock" viewBox="0 0 485 485" fill="#323232">
    <path d="M345,175v-72.5C345,45.981,299.019,0,242.5,0S140,45.981,140,102.5V175H70v310h345V175H345z M170,102.5
      c0-39.977,32.523-72.5,72.5-72.5S315,62.523,315,102.5V175H170V102.5z M385,455H100V205h285V455z"/>
    <path d="M227.5,338.047v53.568h30v-53.569c11.814-5.628,20-17.682,20-31.616c0-19.299-15.701-35-35-35c-19.299,0-35,15.701-35,35
      C207.5,320.365,215.686,332.42,227.5,338.047z"/>
  </symbol>

  <symbol id="eye" viewBox="0 0 24 24" fill="none" stroke="#323232">
    <path d="M22 12C22 12 18.3636 19 12 19C5.63636 19 2 12 2 12C2 12 5.63636 5 12 5C14.8779 5 17.198 6.43162 18.8762 8M9 12C9 13.6569 10.3431 15 12 15C13.6569 15 15 13.6569 15 12C15 10.3431 13.6569 9 12 9" stroke-width="1.5" stroke-linecap="round" stroke-linejoin="round"/>
  </symbol>

  <symbol id="eye--hidden" viewBox="0 0 24 24" fill="none" stroke="#323232">
    <path d="M22 12C22 12 21.171 13.5958 19.612 15.2635M9.76406 5.29519C10.4664 5.10724 11.2123 5 12 5C14.8779 5 17.198 6.43162 18.8762 8M4.34912 8.77822C2.8152 10.4307 2 12 2 12C2 12 5.63636 19 12 19C12.8021 19 13.5608 18.8888 14.2744 18.6944M11.5 14.9585C10.4158 14.7766 9.52883 14.0132 9.17071 13M12.5 9.04148C13.7563 9.25224 14.7478 10.2437 14.9585 11.5M3 3L21 21" stroke-width="1.5" stroke-linecap="round" stroke-linejoin="round"/>
  </symbol>

  <symbol id="arrow" viewBox="0 0 20 20">
    <polygon points="3.828 9 9.899 2.929 8.485 1.515 0 10 .707 10.707 8.485 18.485 9.899 17.071 3.828 11 20 11 20 9 3.828 9" />
  </symbol>

</svg>